<?xml version="1.0" encoding="UTF-8"?>
<!-- Created with Inkscape (http://www.inkscape.org/) -->
<svg width="512" height="512" version="1.1" viewBox="0 0 512 512" xmlns="http://www.w3.org/2000/svg">
 <path d="m97.675 3.1801c-40.707 4.7494-77.141 28.685-90 69.139-9.5559 30.064-5.4532 64.292-5.4532 95.452v169.03c0 42.955-8.6521 95.163 17.721 132.24 27.046 38.026 68.491 42.756 111.54 42.756h190.91c33.157 0 68.59 3.5138 101.42-1.3354 36.398-5.3762 68.755-29.366 81.781-64.289 11.329-30.374 5.7182-68.53 5.7182-100.42v-195.88c0-36.621 4.1861-74.329-19.115-105.4-29.312-39.081-71.494-41.761-116.11-41.761h-183.95c-30.932 0-63.74-3.1215-94.458 0.46256m45.737 126.2c19.275-2.5911 40.214-0.38778 59.659-0.38778h118.32c15.484 0 43.934-0.50584 54.723 12.982 9.0292 11.287 8.9118 33.817 8.9118 47.67v142.19c0 15.484 6.9532 49.893-13.921 54.17-20.004 4.0986-44.208 0.51605-64.629 0.51605-39.447 0-78.89 1.571-118.3 0.97244-15.29-0.23168-48.883 4.7179-58.749-9.0173-9.0601-12.614-3.9107-39.732-3.9107-54.597v-141.19c0-17.559-6.4013-50.037 17.898-53.304m111.1 198.53c28.009 69.877 89.605 43.196 95.761 40.478 88.142-38.909-139.48-481.69-204.62-12.645-0.22464 1.6174 11.907 19.275 30.196 21.972 20.099 2.9639 70.386 0.0889 78.001-49.949m-51.639-129.1c6.3019-1.0341 12.343 7.5049 15.969 11.524 7.8839 8.7369 16.475 16.853 24.961 25.003 3.2077 3.0814 7.165 8.1831 11.636 9.3146 5.6427 1.4278 11.403-6.5643 14.663-10.114 10.008-10.9 21.107-27.29 34.052-34.664 4.5469-2.5902 11.61-0.49118 9.7562 5.8535-1.7022 5.8276-8.6077 10.759-12.737 14.89-4.2964 4.2964-8.6494 8.5451-12.86 12.926-5.7082 5.938-17.691 14.897-20.141 22.794-1.6068 5.1823 6.0543 9.9947 9.1377 13.039 10.42 10.291 20.255 21.19 30.647 31.531 3.5337 3.5159 12.779 13.994 3.0237 16.751-6.2999 1.7818-12.116-6.7692-15.811-10.542-8.9736-9.1626-17.812-18.434-26.603-27.771-3.1162-3.3091-7.1958-9.8526-12.158-10.34-4.3571-0.42855-8.1831 4.5837-10.918 7.2952-8.727 8.6574-17.185 17.705-25.408 26.843-3.3021 3.6699-16.429 21.063-21.84 12.485-4.0279-6.3825 4.5878-13.503 8.4358-17.438 8.906-9.1107 17.812-18.389 26.332-27.86 3.0734-3.4165 8.4844-7.3927 9.8228-11.932 1.407-4.7717-4.5698-9.3991-7.4353-12.417-9.1048-9.5831-18.36-18.981-27.686-28.349-3.0196-3.0326-16.436-16.923-4.8373-18.824" fill="#b4353e" stroke-width="1.5066"/>
</svg>
