<?xml version="1.0" encoding="windows-1252"?>
<!-- Generator: Adobe Illustrator 19.0.0, SVG Export Plug-In . SVG Version: 6.00 Build 0)  -->
<svg version="1.1" id="Layer_1" xmlns="http://www.w3.org/2000/svg" xmlns:xlink="http://www.w3.org/1999/xlink" x="0px" y="0px" viewBox="0 0 150 150" style="enable-background:new 0 0 150 150;" xml:space="preserve">
<g id="XMLID_1_">
	<g id="XMLID_18_">
		<path id="XMLID_137_" style="fill:#0A486A;" d="M50.473,136.123l-0.714-1.869l6.93-2.647c2.388-0.912,4.232-2.822,5.059-5.24    l3.111-9.093c0.185-0.541,0.316-1.101,0.39-1.665l1.92-14.681c0.039-0.301-0.137-0.605-0.427-0.753L51.289,92.33l0.905-1.783    l15.454,7.845c1.047,0.533,1.652,1.65,1.506,2.782l-1.921,14.693c-0.091,0.696-0.252,1.387-0.48,2.054l-3.111,9.093    c-1.02,2.981-3.294,5.337-6.238,6.462L50.473,136.123z"/>
	</g>
	<g id="XMLID_16_">
		<path id="XMLID_136_" style="fill:#0A486A;" d="M105.082,135.522l-7.771-2.303c-3.883-1.15-7.066-4.095-8.516-7.878l-4.237-11.062    c-0.708-1.846-0.991-3.864-0.817-5.836l1.89-21.507c0.337-3.841,2.337-7.323,5.486-9.553l10.798-7.637l1.154,1.633l-10.797,7.637    c-2.669,1.89-4.364,4.84-4.649,8.095l-1.89,21.508c-0.147,1.671,0.093,3.381,0.692,4.944l4.237,11.063    c1.229,3.205,3.926,5.7,7.217,6.675l7.771,2.303L105.082,135.522z"/>
	</g>
	<g id="XMLID_19_">
		<path id="XMLID_135_" style="fill:#0A486A;" d="M82.138,81.563c-0.261,0-0.523-0.026-0.784-0.08    c-1.109-0.229-2.059-0.932-2.604-1.925l-1.762-3.212c-0.534-0.975-0.623-2.132-0.243-3.175l3.141-8.657l1.881,0.683l-3.142,8.658    c-0.184,0.503-0.141,1.061,0.117,1.531l1.762,3.21c0.263,0.479,0.721,0.818,1.256,0.929c0.531,0.111,1.088-0.018,1.52-0.354    l16.099-12.522l1.229,1.579L84.507,80.749C83.822,81.281,82.988,81.563,82.138,81.563z"/>
	</g>
	<g id="XMLID_20_">
		<path id="XMLID_134_" style="fill:#0A486A;" d="M73.776,83.104c-0.366,0-0.735-0.071-1.089-0.218l-4.7-1.945    c-0.779-0.321-1.371-0.969-1.624-1.774l-3.077-9.847l1.909-0.597l3.077,9.847c0.074,0.237,0.249,0.428,0.478,0.522l4.701,1.946    c0.48,0.198,0.822-0.092,0.916-0.186c0.093-0.095,0.38-0.438,0.174-0.919l-6.053-14.102l1.838-0.789l6.053,14.102    c0.457,1.066,0.226,2.288-0.589,3.113C75.246,82.812,74.519,83.104,73.776,83.104z"/>
	</g>
	<g id="XMLID_17_">
		<path id="XMLID_133_" style="fill:#0A486A;" d="M66.935,94.808c-0.317,0-0.637-0.081-0.933-0.245l-17.579-9.75l0.97-1.748    l17.358,9.627l-9.27-22.877l1.854-0.751L68.7,92.175c0.309,0.761,0.111,1.604-0.504,2.148    C67.834,94.644,67.388,94.808,66.935,94.808z"/>
	</g>
	<g id="XMLID_22_">
		<path id="XMLID_131_" style="fill:#DAE6E8;" d="M83.888,60.882c0.096-0.663,0.281-1.245,0.555-1.745    c0.274-0.5,0.617-0.918,1.028-1.253c0.411-0.334,0.883-0.586,1.415-0.755c0.532-0.168,1.104-0.253,1.717-0.253    c0.637,0,1.212,0.091,1.726,0.273c0.513,0.182,0.951,0.434,1.314,0.755s0.643,0.699,0.837,1.133s0.291,0.902,0.291,1.406    c0,0.44-0.049,0.827-0.147,1.162c-0.1,0.334-0.241,0.626-0.426,0.875s-0.414,0.459-0.688,0.631    c-0.274,0.172-0.583,0.315-0.928,0.43c0.829,0.262,1.447,0.66,1.855,1.195c0.407,0.536,0.611,1.208,0.611,2.018    c0,0.688-0.127,1.297-0.382,1.826c-0.255,0.529-0.6,0.974-1.033,1.334c-0.434,0.36-0.936,0.633-1.506,0.817    c-0.57,0.185-1.175,0.277-1.812,0.277c-0.695,0-1.301-0.08-1.817-0.239c-0.516-0.159-0.965-0.396-1.348-0.708    c-0.383-0.312-0.708-0.695-0.976-1.147s-0.497-0.976-0.688-1.568l1.042-0.43c0.274-0.115,0.531-0.145,0.771-0.091    c0.238,0.054,0.412,0.183,0.521,0.387c0.115,0.223,0.241,0.443,0.378,0.66c0.137,0.217,0.301,0.41,0.492,0.579    s0.416,0.306,0.675,0.411c0.258,0.105,0.565,0.158,0.922,0.158c0.402,0,0.753-0.065,1.052-0.196c0.3-0.131,0.55-0.301,0.751-0.512    s0.351-0.445,0.449-0.703c0.099-0.258,0.148-0.518,0.148-0.779c0-0.332-0.035-0.633-0.105-0.904    c-0.07-0.271-0.217-0.502-0.439-0.693c-0.224-0.191-0.544-0.341-0.961-0.45c-0.418-0.108-0.977-0.163-1.678-0.163v-1.683    c0.579-0.006,1.061-0.061,1.443-0.163s0.687-0.244,0.913-0.426s0.384-0.4,0.474-0.655c0.089-0.255,0.134-0.536,0.134-0.841    c0-0.65-0.182-1.144-0.545-1.482c-0.363-0.337-0.848-0.506-1.454-0.506c-0.28,0-0.538,0.04-0.774,0.119    c-0.235,0.08-0.447,0.191-0.636,0.335c-0.188,0.144-0.346,0.311-0.473,0.502c-0.128,0.191-0.224,0.401-0.287,0.631    c-0.108,0.293-0.25,0.488-0.426,0.583c-0.175,0.096-0.422,0.118-0.741,0.067L83.888,60.882z"/>
	</g>
	<g id="XMLID_38_">
		<path id="XMLID_129_" style="fill:#0A486A;" d="M100.914,65.148c0.109,0.107,0.168,0.225,0.172,0.351s-0.045,0.239-0.145,0.341    l-0.6,0.613l-4.105-4.023l0.332-0.339c0.068-0.069,0.154-0.127,0.257-0.175c0.104-0.047,0.216-0.07,0.339-0.068l3.602-0.041    c0.303-0.006,0.584-0.02,0.842-0.043s0.494-0.065,0.709-0.125c0.216-0.059,0.414-0.139,0.596-0.238    c0.182-0.102,0.35-0.229,0.504-0.387c0.141-0.144,0.244-0.29,0.31-0.439s0.097-0.299,0.094-0.447    c-0.003-0.149-0.038-0.294-0.108-0.436s-0.171-0.277-0.303-0.407c-0.122-0.118-0.252-0.212-0.389-0.278s-0.275-0.108-0.418-0.125    c-0.141-0.017-0.278-0.01-0.415,0.019c-0.136,0.028-0.267,0.079-0.392,0.151c-0.172,0.081-0.314,0.105-0.43,0.074    s-0.232-0.127-0.351-0.287l-0.445-0.623c0.323-0.246,0.649-0.42,0.979-0.52c0.332-0.101,0.657-0.136,0.977-0.105    c0.32,0.029,0.631,0.12,0.934,0.272c0.301,0.153,0.584,0.358,0.85,0.618c0.276,0.271,0.488,0.559,0.638,0.865    c0.149,0.305,0.232,0.611,0.249,0.92c0.018,0.309-0.031,0.613-0.146,0.912c-0.114,0.299-0.297,0.576-0.549,0.832    c-0.217,0.222-0.448,0.395-0.697,0.519c-0.248,0.124-0.512,0.218-0.787,0.282c-0.277,0.064-0.566,0.104-0.87,0.121    s-0.616,0.029-0.938,0.038l-2.699,0.056c0.168,0.088,0.326,0.186,0.475,0.291c0.148,0.104,0.281,0.214,0.396,0.328L100.914,65.148    z"/>
	</g>
	<g id="XMLID_21_">
		<path id="XMLID_126_" style="fill:#2887C2;" d="M98.778,49.743c0.511,0.834,0.865,1.615,1.063,2.339s0.263,1.385,0.192,1.979    c-0.069,0.595-0.259,1.122-0.569,1.582c-0.31,0.459-0.715,0.843-1.213,1.148c-0.499,0.305-1.021,0.49-1.567,0.554    s-1.099-0.008-1.657-0.218c-0.56-0.209-1.116-0.568-1.669-1.076c-0.554-0.507-1.086-1.178-1.596-2.012    c-0.514-0.839-0.87-1.619-1.069-2.34c-0.199-0.721-0.265-1.378-0.197-1.972c0.067-0.593,0.254-1.118,0.56-1.575    s0.707-0.839,1.206-1.144s1.023-0.491,1.574-0.558c0.55-0.067,1.105,0.003,1.667,0.211c0.562,0.209,1.119,0.565,1.674,1.069    S98.265,48.904,98.778,49.743z M97.091,50.776c-0.425-0.693-0.827-1.235-1.206-1.627c-0.38-0.393-0.737-0.671-1.072-0.837    c-0.335-0.165-0.646-0.233-0.932-0.207c-0.287,0.026-0.55,0.113-0.788,0.259c-0.234,0.143-0.427,0.335-0.579,0.578    s-0.229,0.549-0.233,0.92c-0.002,0.372,0.086,0.815,0.265,1.331c0.179,0.515,0.481,1.119,0.905,1.812s0.825,1.236,1.202,1.629    c0.378,0.395,0.733,0.675,1.065,0.841c0.333,0.167,0.641,0.236,0.926,0.211c0.284-0.025,0.544-0.109,0.777-0.252    c0.238-0.146,0.435-0.341,0.589-0.584c0.155-0.244,0.235-0.551,0.239-0.924c0.006-0.373-0.08-0.818-0.258-1.335    C97.815,52.074,97.515,51.47,97.091,50.776z"/>
	</g>
	<g id="XMLID_68_">
		<path id="XMLID_123_" style="fill:#DAE6E8;" d="M99.432,25.916l1.467,1.285c0.137,0.12,0.215,0.268,0.236,0.444    s-0.039,0.346-0.184,0.509l-1.186,1.354l3.619,3.17l-1.931,2.204l-3.62-3.17l-5.479,6.255c-0.15,0.171-0.335,0.275-0.555,0.312    c-0.22,0.037-0.424,0.004-0.61-0.1l-1.515-0.856l-3.229-15.243l2.102-2.399l9.249,8.103L99.432,25.916z M95.865,29.987    l-4.85-4.249c-0.458-0.401-0.938-0.875-1.437-1.421l2.334,10.182L95.865,29.987z"/>
	</g>
	<g id="XMLID_53_">
		<path id="XMLID_121_" style="fill:#F3714E;" d="M98.412,97.462l-0.205,0.916c-0.062,0.273-0.141,0.488-0.234,0.644    c-0.096,0.155-0.184,0.284-0.268,0.385l-6.86,8.597c-0.142,0.178-0.317,0.316-0.524,0.416c-0.209,0.1-0.462,0.117-0.759,0.05    l-1.531-0.345l6.911-8.378c0.152-0.169,0.299-0.323,0.44-0.463c0.143-0.138,0.297-0.267,0.46-0.386l-5.92-1.333    c-0.132-0.029-0.234-0.103-0.31-0.222s-0.099-0.244-0.069-0.376l0.322-1.429L98.412,97.462z"/>
	</g>
	<g id="XMLID_54_">
		<path id="XMLID_118_" style="fill:#2887C2;" d="M104.764,101.561l0.076,0.841c0.007,0.078-0.012,0.148-0.057,0.209    c-0.047,0.062-0.116,0.097-0.21,0.105l-0.775,0.07l0.188,2.073l-1.264,0.115l-0.188-2.074l-3.585,0.324    c-0.097,0.01-0.187-0.014-0.268-0.068c-0.078-0.053-0.133-0.124-0.161-0.213l-0.22-0.721l3.54-5.74l1.375-0.125l0.479,5.301    L104.764,101.561z M102.432,101.771l-0.252-2.779c-0.023-0.262-0.032-0.553-0.025-0.874l-2.309,3.888L102.432,101.771z"/>
	</g>
	<g id="XMLID_55_">
		<path id="XMLID_114_" style="fill:#DAE6E8;" d="M109.007,94.611c0.548,0.125,0.965,0.354,1.251,0.688    c0.286,0.333,0.452,0.759,0.499,1.274c0.035,0.387-0.007,0.744-0.125,1.072c-0.119,0.327-0.301,0.614-0.547,0.86    c-0.246,0.245-0.55,0.446-0.912,0.6c-0.361,0.155-0.769,0.252-1.22,0.293s-0.87,0.019-1.253-0.068    c-0.384-0.087-0.719-0.229-1.005-0.428c-0.286-0.197-0.517-0.447-0.692-0.747c-0.176-0.302-0.28-0.646-0.315-1.033    c-0.047-0.516,0.04-0.964,0.262-1.343c0.222-0.38,0.591-0.681,1.107-0.901c-0.439-0.139-0.78-0.362-1.021-0.67    c-0.242-0.308-0.383-0.691-0.425-1.15c-0.029-0.331,0.01-0.645,0.119-0.942c0.109-0.3,0.274-0.565,0.497-0.799    c0.224-0.233,0.497-0.425,0.824-0.574c0.325-0.148,0.689-0.242,1.092-0.278c0.404-0.036,0.779-0.011,1.126,0.077    c0.347,0.089,0.651,0.228,0.912,0.418c0.262,0.188,0.473,0.421,0.634,0.695s0.256,0.576,0.285,0.907    c0.042,0.459-0.028,0.86-0.21,1.207S109.414,94.396,109.007,94.611z M107.246,91.589c-0.222,0.02-0.41,0.071-0.565,0.155    c-0.155,0.082-0.28,0.187-0.377,0.311c-0.097,0.125-0.163,0.264-0.2,0.418c-0.037,0.153-0.048,0.313-0.032,0.479    c0.016,0.173,0.052,0.339,0.108,0.499c0.058,0.158,0.142,0.298,0.255,0.416c0.112,0.117,0.254,0.207,0.426,0.27    c0.173,0.061,0.38,0.08,0.621,0.059c0.242-0.021,0.442-0.078,0.601-0.17s0.282-0.205,0.371-0.342    c0.089-0.136,0.147-0.288,0.176-0.454c0.027-0.167,0.033-0.337,0.018-0.51c-0.016-0.165-0.056-0.321-0.122-0.465    c-0.064-0.146-0.156-0.27-0.271-0.375c-0.115-0.106-0.257-0.186-0.425-0.238C107.662,91.586,107.468,91.568,107.246,91.589z     M107.848,98.233c0.245-0.022,0.458-0.078,0.637-0.164c0.179-0.088,0.327-0.2,0.442-0.336c0.115-0.137,0.198-0.294,0.246-0.474    c0.049-0.179,0.064-0.369,0.046-0.571c-0.043-0.479-0.209-0.83-0.497-1.052c-0.288-0.221-0.667-0.312-1.134-0.27    c-0.468,0.042-0.823,0.199-1.067,0.469c-0.243,0.271-0.344,0.645-0.3,1.124c0.019,0.202,0.067,0.387,0.147,0.554    c0.08,0.168,0.189,0.308,0.328,0.421c0.138,0.114,0.303,0.197,0.495,0.252C107.383,98.239,107.602,98.256,107.848,98.233z"/>
	</g>
	<g id="XMLID_58_">
		<path id="XMLID_111_" style="fill:#F3714E;" d="M99.607,83.813l-0.382,0.572c0.23-0.142,0.481-0.259,0.754-0.351    c0.272-0.091,0.569-0.149,0.891-0.179c0.471-0.043,0.936-0.008,1.395,0.107c0.458,0.114,0.871,0.312,1.238,0.596    c0.366,0.281,0.675,0.646,0.923,1.092c0.249,0.446,0.401,0.979,0.458,1.599c0.052,0.58-0.006,1.133-0.172,1.66    s-0.424,0.997-0.774,1.412c-0.351,0.412-0.787,0.753-1.31,1.02c-0.522,0.268-1.11,0.431-1.766,0.49    c-0.665,0.06-1.271,0.008-1.819-0.156c-0.547-0.164-1.023-0.421-1.432-0.769c-0.407-0.348-0.734-0.781-0.98-1.301    c-0.247-0.518-0.4-1.104-0.459-1.759c-0.054-0.586,0.012-1.197,0.193-1.836c0.183-0.638,0.493-1.313,0.933-2.024l2.608-4.254    c0.092-0.147,0.231-0.279,0.421-0.394c0.189-0.115,0.412-0.186,0.671-0.209l1.894-0.172L99.607,83.813z M100.663,90.098    c0.338-0.031,0.644-0.116,0.918-0.258c0.274-0.14,0.503-0.323,0.688-0.549c0.185-0.224,0.322-0.481,0.412-0.77    c0.089-0.288,0.119-0.597,0.09-0.925c-0.032-0.354-0.116-0.67-0.251-0.945c-0.135-0.273-0.312-0.499-0.53-0.681    c-0.219-0.18-0.474-0.308-0.764-0.387c-0.291-0.077-0.605-0.101-0.944-0.069c-0.339,0.03-0.64,0.115-0.905,0.255    s-0.486,0.32-0.662,0.541c-0.177,0.222-0.308,0.478-0.391,0.766c-0.085,0.288-0.112,0.593-0.083,0.914    c0.031,0.345,0.107,0.654,0.228,0.93s0.283,0.505,0.488,0.689c0.204,0.184,0.449,0.319,0.735,0.405    C99.978,90.103,100.301,90.13,100.663,90.098z"/>
	</g>
	<g id="XMLID_56_">
		<path id="XMLID_109_" style="fill:#2887C2;" d="M106.029,78.259c0.216-0.065,0.423-0.118,0.623-0.157    c0.199-0.038,0.393-0.066,0.581-0.084c0.521-0.047,0.988-0.011,1.401,0.108c0.413,0.12,0.767,0.306,1.062,0.556    s0.527,0.553,0.699,0.909c0.17,0.356,0.274,0.748,0.313,1.175c0.047,0.525-0.001,1.015-0.148,1.466    c-0.146,0.453-0.369,0.849-0.671,1.188c-0.303,0.339-0.671,0.614-1.106,0.824c-0.437,0.209-0.92,0.339-1.45,0.387    c-0.312,0.028-0.61,0.022-0.896-0.017s-0.555-0.101-0.81-0.187c-0.254-0.084-0.492-0.188-0.713-0.309    c-0.222-0.122-0.422-0.252-0.601-0.393l0.457-0.768c0.096-0.167,0.233-0.257,0.411-0.272c0.115-0.011,0.234,0.014,0.36,0.077    c0.126,0.062,0.27,0.13,0.431,0.203c0.162,0.073,0.35,0.137,0.564,0.191s0.469,0.068,0.762,0.042    c0.312-0.028,0.582-0.104,0.812-0.226c0.229-0.122,0.414-0.282,0.556-0.477c0.142-0.195,0.241-0.421,0.299-0.678    s0.072-0.532,0.046-0.825c-0.049-0.541-0.244-0.948-0.585-1.226c-0.341-0.275-0.818-0.386-1.433-0.33    c-0.472,0.043-0.946,0.173-1.425,0.392l-1.086-0.206l0.389-4.896l4.904-0.444l0.064,0.722c0.022,0.243-0.035,0.446-0.173,0.61    c-0.138,0.166-0.387,0.263-0.749,0.296l-2.727,0.246L106.029,78.259z"/>
	</g>
	<g id="XMLID_59_">
		<path id="XMLID_106_" style="fill:#0A486A;" d="M113.006,88.062c0.068-0.069,0.134-0.137,0.195-0.202    c0.061-0.065,0.121-0.132,0.178-0.198c-0.19,0.097-0.396,0.161-0.617,0.197c-0.221,0.037-0.449,0.042-0.685,0.018    c-0.269-0.029-0.526-0.103-0.772-0.224c-0.248-0.12-0.463-0.284-0.643-0.493c-0.18-0.21-0.316-0.459-0.411-0.749    c-0.094-0.29-0.121-0.621-0.082-0.993c0.037-0.347,0.137-0.665,0.298-0.955c0.16-0.29,0.369-0.537,0.626-0.74    c0.257-0.205,0.555-0.355,0.894-0.453c0.34-0.098,0.705-0.125,1.1-0.084c0.396,0.043,0.746,0.142,1.049,0.302    c0.303,0.158,0.555,0.362,0.754,0.611c0.199,0.248,0.342,0.537,0.428,0.864c0.088,0.326,0.11,0.678,0.07,1.053    c-0.025,0.24-0.07,0.464-0.134,0.675c-0.064,0.21-0.144,0.411-0.24,0.602c-0.097,0.188-0.208,0.374-0.335,0.552    c-0.128,0.178-0.268,0.353-0.42,0.525l-2.043,2.341c-0.07,0.08-0.169,0.142-0.297,0.188c-0.127,0.047-0.268,0.062-0.422,0.045    l-1.217-0.129L113.006,88.062z M111.505,85.456c-0.046,0.432,0.03,0.773,0.229,1.025c0.199,0.25,0.505,0.397,0.916,0.44    c0.214,0.023,0.409,0.009,0.584-0.04c0.176-0.051,0.326-0.128,0.453-0.234c0.127-0.105,0.229-0.235,0.305-0.39    c0.076-0.155,0.124-0.325,0.144-0.511c0.022-0.211,0.011-0.403-0.036-0.576c-0.047-0.174-0.123-0.323-0.229-0.451    c-0.106-0.126-0.237-0.229-0.394-0.306c-0.156-0.079-0.331-0.127-0.523-0.147c-0.2-0.021-0.384-0.009-0.552,0.041    c-0.168,0.049-0.315,0.126-0.443,0.231c-0.126,0.106-0.229,0.237-0.307,0.394S111.525,85.263,111.505,85.456z"/>
	</g>
	<g id="XMLID_57_">
		<path id="XMLID_104_" style="fill:#2887C2;" d="M93.15,94.145c0.14,0.043,0.238,0.115,0.297,0.219    c0.058,0.105,0.067,0.221,0.027,0.35l-0.236,0.777l-5.203-1.588l0.132-0.43c0.026-0.088,0.072-0.174,0.139-0.26    c0.066-0.084,0.15-0.152,0.255-0.205l3.007-1.605c0.251-0.137,0.481-0.271,0.688-0.404c0.207-0.131,0.388-0.27,0.542-0.412    c0.154-0.145,0.287-0.299,0.396-0.463c0.108-0.162,0.193-0.344,0.254-0.543c0.056-0.182,0.078-0.35,0.067-0.504    c-0.01-0.154-0.049-0.293-0.116-0.416c-0.067-0.125-0.161-0.23-0.281-0.32c-0.12-0.088-0.264-0.156-0.432-0.207    c-0.154-0.047-0.303-0.07-0.448-0.066c-0.144,0.004-0.278,0.029-0.404,0.078c-0.126,0.047-0.239,0.113-0.341,0.197    c-0.103,0.082-0.189,0.182-0.263,0.299c-0.108,0.141-0.219,0.225-0.329,0.248c-0.109,0.023-0.25-0.006-0.42-0.088l-0.645-0.328    c0.163-0.348,0.361-0.637,0.596-0.865c0.233-0.229,0.492-0.4,0.773-0.516c0.282-0.113,0.583-0.174,0.903-0.178    c0.319-0.002,0.647,0.047,0.983,0.15c0.35,0.105,0.653,0.256,0.912,0.447s0.463,0.412,0.612,0.664    c0.148,0.252,0.239,0.529,0.274,0.83c0.033,0.301,0.001,0.613-0.098,0.938c-0.086,0.281-0.206,0.527-0.36,0.74    c-0.155,0.213-0.334,0.406-0.539,0.58c-0.204,0.174-0.43,0.336-0.677,0.482s-0.504,0.293-0.771,0.441l-2.243,1.225    c0.179,0,0.354,0.014,0.524,0.037s0.33,0.057,0.477,0.102L93.15,94.145z"/>
	</g>
	<g id="XMLID_24_">
		<path id="XMLID_102_" style="fill:#F3714E;" d="M100.503,42.335c-0.083-0.958-0.013-1.831,0.207-2.62    c0.221-0.788,0.563-1.483,1.03-2.086c0.466-0.601,1.043-1.105,1.732-1.516c0.689-0.409,1.462-0.714,2.316-0.912    c0.892-0.208,1.726-0.268,2.502-0.181s1.472,0.297,2.084,0.628c0.613,0.332,1.125,0.77,1.538,1.312    c0.413,0.542,0.701,1.166,0.865,1.87c0.143,0.615,0.199,1.173,0.17,1.672c-0.029,0.5-0.133,0.954-0.31,1.361    c-0.178,0.408-0.43,0.777-0.758,1.106c-0.327,0.33-0.712,0.631-1.156,0.903c1.244,0.096,2.236,0.452,2.981,1.068    c0.745,0.615,1.249,1.489,1.513,2.621c0.224,0.962,0.243,1.854,0.059,2.678c-0.184,0.822-0.521,1.557-1.009,2.2    c-0.49,0.645-1.103,1.188-1.84,1.633c-0.738,0.444-1.552,0.77-2.443,0.978c-0.972,0.226-1.844,0.311-2.617,0.257    c-0.773-0.055-1.479-0.239-2.115-0.551c-0.637-0.312-1.216-0.741-1.737-1.287s-1.012-1.202-1.472-1.969l1.316-0.94    c0.346-0.25,0.694-0.375,1.047-0.378c0.352-0.001,0.636,0.122,0.854,0.373c0.232,0.274,0.48,0.541,0.742,0.799    c0.263,0.259,0.555,0.476,0.877,0.648c0.322,0.175,0.682,0.292,1.076,0.355c0.396,0.063,0.842,0.037,1.342-0.079    c0.561-0.131,1.029-0.336,1.406-0.616c0.376-0.28,0.671-0.6,0.883-0.96c0.212-0.358,0.346-0.735,0.399-1.128    c0.055-0.394,0.039-0.772-0.046-1.138c-0.108-0.464-0.254-0.873-0.44-1.229c-0.188-0.355-0.467-0.631-0.841-0.826    c-0.374-0.194-0.871-0.3-1.489-0.315c-0.619-0.016-1.419,0.091-2.399,0.319l-0.548-2.354c0.81-0.197,1.464-0.43,1.966-0.696    c0.502-0.268,0.881-0.564,1.139-0.893c0.257-0.327,0.406-0.684,0.448-1.069s0.014-0.792-0.086-1.22    c-0.212-0.909-0.626-1.54-1.244-1.895s-1.351-0.434-2.197-0.236c-0.393,0.092-0.739,0.231-1.044,0.42    c-0.303,0.188-0.563,0.412-0.779,0.674c-0.217,0.262-0.383,0.547-0.499,0.856c-0.115,0.308-0.181,0.634-0.196,0.975    c-0.056,0.446-0.189,0.764-0.404,0.954c-0.215,0.191-0.553,0.303-1.014,0.335L100.503,42.335z"/>
	</g>
	<g id="XMLID_25_">
		<path id="XMLID_100_" style="fill:#0A486A;" d="M50.333,63.867l0.718,1.591l-6.879,3.105l-0.718-1.591l2.52-1.137L42.7,58.586    c-0.129-0.286-0.253-0.585-0.373-0.896l-1.113,2.303c-0.066,0.128-0.146,0.224-0.237,0.288c-0.091,0.066-0.185,0.11-0.282,0.132    c-0.096,0.023-0.188,0.029-0.276,0.017c-0.089-0.012-0.161-0.037-0.22-0.073l-1.085-0.616l2.336-4.937l1.745-0.788l4.903,10.859    L50.333,63.867z"/>
	</g>
	<g id="XMLID_70_">
		<path id="XMLID_98_" style="fill:#2887C2;" d="M34.541,46.762c0.301-0.068,0.589-0.119,0.866-0.152    c0.276-0.033,0.543-0.053,0.801-0.058c0.717-0.013,1.351,0.084,1.901,0.288c0.551,0.204,1.016,0.491,1.394,0.862    c0.377,0.37,0.666,0.808,0.862,1.31c0.198,0.503,0.302,1.046,0.312,1.631c0.013,0.724-0.103,1.386-0.347,1.988    s-0.589,1.119-1.034,1.552c-0.445,0.433-0.976,0.771-1.591,1.015c-0.615,0.242-1.288,0.371-2.017,0.385    c-0.428,0.007-0.834-0.03-1.219-0.111c-0.385-0.08-0.747-0.192-1.086-0.334c-0.339-0.141-0.654-0.306-0.943-0.493    c-0.29-0.186-0.549-0.385-0.779-0.595l0.699-1.003c0.147-0.216,0.343-0.326,0.588-0.33c0.157-0.003,0.319,0.044,0.484,0.142    c0.165,0.098,0.354,0.204,0.567,0.32s0.462,0.221,0.751,0.316c0.288,0.096,0.633,0.14,1.035,0.133    c0.428-0.008,0.804-0.084,1.129-0.228c0.324-0.144,0.592-0.342,0.805-0.595c0.212-0.252,0.371-0.551,0.475-0.896    c0.104-0.345,0.153-0.718,0.146-1.12c-0.013-0.742-0.239-1.318-0.677-1.729c-0.438-0.411-1.078-0.608-1.921-0.594    c-0.648,0.012-1.309,0.143-1.984,0.395l-1.46-0.39l1.014-6.643l6.735-0.119l0.018,0.991c0.006,0.333-0.093,0.604-0.297,0.815    c-0.204,0.211-0.554,0.321-1.05,0.33l-3.745,0.066L34.541,46.762z"/>
	</g>
	<g id="XMLID_23_">
		<path id="XMLID_96_" style="fill:#DAE6E8;" d="M28.032,62.229c-0.127-0.581-0.153-1.121-0.081-1.622    c0.072-0.501,0.227-0.954,0.465-1.36c0.237-0.406,0.551-0.761,0.94-1.066c0.39-0.306,0.839-0.554,1.348-0.744    c0.529-0.198,1.035-0.301,1.518-0.309c0.483-0.009,0.926,0.064,1.327,0.218c0.402,0.156,0.751,0.382,1.047,0.682    c0.296,0.3,0.523,0.659,0.68,1.077c0.136,0.365,0.215,0.703,0.237,1.011c0.021,0.309-0.006,0.595-0.082,0.859    c-0.076,0.265-0.201,0.511-0.376,0.738c-0.174,0.228-0.387,0.443-0.637,0.646c0.77-0.041,1.407,0.099,1.912,0.416    c0.506,0.318,0.883,0.814,1.135,1.487c0.214,0.572,0.298,1.117,0.25,1.635c-0.047,0.52-0.195,0.996-0.443,1.429    c-0.248,0.435-0.58,0.816-0.998,1.146c-0.416,0.332-0.889,0.595-1.418,0.793c-0.578,0.216-1.105,0.337-1.584,0.366    c-0.479,0.027-0.925-0.028-1.34-0.169c-0.414-0.14-0.804-0.357-1.166-0.65c-0.363-0.292-0.717-0.656-1.06-1.088l0.731-0.682    c0.193-0.181,0.396-0.285,0.612-0.314c0.215-0.029,0.399,0.023,0.553,0.16c0.165,0.15,0.338,0.293,0.519,0.432    c0.182,0.136,0.378,0.247,0.59,0.327c0.211,0.081,0.439,0.125,0.687,0.132c0.247,0.008,0.52-0.044,0.815-0.155    c0.334-0.125,0.604-0.288,0.813-0.49c0.208-0.202,0.363-0.422,0.465-0.659c0.101-0.236,0.153-0.479,0.155-0.723    c0.002-0.246-0.038-0.477-0.119-0.694c-0.104-0.275-0.227-0.515-0.369-0.718c-0.142-0.204-0.335-0.35-0.579-0.438    c-0.246-0.09-0.559-0.115-0.938-0.076c-0.381,0.04-0.862,0.168-1.445,0.387l-0.521-1.397c0.479-0.186,0.862-0.38,1.148-0.584    c0.285-0.204,0.495-0.415,0.626-0.637c0.132-0.221,0.195-0.453,0.19-0.691c-0.006-0.239-0.056-0.487-0.15-0.742    c-0.202-0.539-0.507-0.894-0.913-1.061c-0.407-0.167-0.862-0.158-1.365,0.03c-0.233,0.087-0.435,0.201-0.606,0.34    c-0.171,0.139-0.312,0.297-0.424,0.476c-0.111,0.176-0.191,0.365-0.236,0.563c-0.048,0.198-0.062,0.403-0.043,0.614    c0.001,0.277-0.057,0.482-0.172,0.616c-0.117,0.134-0.315,0.229-0.596,0.286L28.032,62.229z"/>
	</g>
	<g id="XMLID_69_">
		<path id="XMLID_94_" style="fill:#2887C2;" d="M48.61,81.073c0.23,0.08,0.391,0.207,0.481,0.383s0.099,0.37,0.025,0.583    l-0.439,1.276l-8.557-2.948l0.244-0.707c0.049-0.144,0.131-0.284,0.246-0.422c0.114-0.138,0.261-0.246,0.437-0.327l5.094-2.491    c0.427-0.213,0.816-0.423,1.168-0.63c0.351-0.207,0.659-0.425,0.926-0.655c0.265-0.23,0.493-0.478,0.685-0.743    s0.344-0.562,0.456-0.891c0.103-0.298,0.15-0.576,0.144-0.833c-0.008-0.257-0.065-0.49-0.169-0.7    c-0.104-0.209-0.255-0.392-0.45-0.545c-0.193-0.154-0.43-0.279-0.706-0.374c-0.253-0.087-0.498-0.132-0.739-0.134    c-0.24-0.003-0.467,0.032-0.677,0.104c-0.212,0.072-0.405,0.174-0.579,0.307c-0.175,0.132-0.326,0.293-0.455,0.48    c-0.188,0.231-0.376,0.363-0.562,0.396c-0.184,0.033-0.415-0.025-0.693-0.171l-1.053-0.585c0.292-0.568,0.64-1.035,1.042-1.402    c0.403-0.366,0.843-0.636,1.317-0.81c0.475-0.175,0.979-0.255,1.512-0.242c0.531,0.013,1.074,0.115,1.626,0.305    c0.575,0.198,1.072,0.465,1.492,0.799c0.419,0.334,0.744,0.715,0.977,1.142c0.231,0.428,0.367,0.893,0.407,1.396    c0.038,0.502-0.034,1.021-0.219,1.556c-0.158,0.46-0.372,0.862-0.643,1.207c-0.27,0.344-0.58,0.655-0.93,0.934    s-0.734,0.532-1.154,0.761c-0.419,0.229-0.855,0.457-1.308,0.688l-3.802,1.903c0.298,0.013,0.588,0.043,0.87,0.093    c0.281,0.049,0.544,0.115,0.786,0.198L48.61,81.073z"/>
	</g>
	<g id="XMLID_31_">
		<path id="XMLID_92_" style="fill:#2887C2;" d="M55.338,103.88c0.202-0.01,0.366,0.039,0.491,0.146    c0.125,0.108,0.192,0.256,0.201,0.442l0.056,1.123l-7.526,0.374l-0.03-0.622c-0.007-0.127,0.013-0.261,0.06-0.402    c0.046-0.142,0.125-0.271,0.235-0.388l3.164-3.504c0.265-0.297,0.5-0.579,0.707-0.849c0.208-0.269,0.378-0.533,0.513-0.794    c0.134-0.26,0.233-0.521,0.299-0.786s0.092-0.541,0.077-0.829c-0.013-0.263-0.062-0.492-0.148-0.688s-0.201-0.359-0.348-0.489    c-0.146-0.129-0.317-0.224-0.516-0.282s-0.419-0.082-0.662-0.069c-0.223,0.011-0.426,0.053-0.613,0.125    c-0.187,0.073-0.351,0.17-0.49,0.291c-0.141,0.121-0.259,0.26-0.353,0.417c-0.094,0.156-0.162,0.327-0.203,0.512    c-0.075,0.237-0.178,0.396-0.311,0.479s-0.329,0.11-0.588,0.082l-0.995-0.125c0.049-0.529,0.173-0.998,0.37-1.406    c0.198-0.408,0.453-0.753,0.767-1.035c0.312-0.281,0.677-0.499,1.093-0.654s0.866-0.245,1.352-0.27    c0.506-0.024,0.973,0.027,1.399,0.155c0.428,0.128,0.797,0.322,1.109,0.58c0.312,0.259,0.56,0.575,0.746,0.952    c0.187,0.376,0.291,0.799,0.314,1.269c0.021,0.405-0.021,0.782-0.123,1.133c-0.102,0.35-0.245,0.686-0.429,1.01    c-0.185,0.323-0.402,0.639-0.656,0.945c-0.253,0.306-0.52,0.618-0.797,0.937l-2.348,2.648c0.233-0.082,0.467-0.147,0.7-0.197    c0.232-0.05,0.456-0.08,0.669-0.091L55.338,103.88z"/>
	</g>
	<g id="XMLID_66_">
		<path id="XMLID_89_" style="fill:#F3714E;" d="M52.434,45.976l-0.255,0.978c0.251-0.308,0.543-0.591,0.877-0.848    c0.333-0.256,0.716-0.483,1.147-0.678c0.632-0.285,1.293-0.458,1.984-0.52c0.691-0.063,1.358,0.014,2.003,0.229    c0.645,0.214,1.246,0.572,1.805,1.069c0.56,0.5,1.027,1.166,1.403,1.998c0.351,0.778,0.538,1.573,0.562,2.384    c0.021,0.811-0.11,1.586-0.396,2.328c-0.287,0.742-0.729,1.423-1.324,2.045c-0.596,0.622-1.333,1.131-2.212,1.527    c-0.894,0.403-1.759,0.622-2.597,0.657c-0.838,0.035-1.623-0.09-2.355-0.377c-0.731-0.285-1.393-0.729-1.984-1.329    c-0.591-0.602-1.084-1.341-1.481-2.22c-0.354-0.785-0.56-1.665-0.613-2.637c-0.054-0.973,0.052-2.057,0.319-3.254l1.571-7.151    c0.055-0.248,0.186-0.496,0.393-0.747c0.206-0.252,0.483-0.455,0.83-0.611l2.543-1.148L52.434,45.976z M56.917,54.178    c0.455-0.205,0.837-0.471,1.149-0.797c0.312-0.326,0.541-0.69,0.69-1.09c0.148-0.402,0.215-0.824,0.2-1.267    c-0.015-0.442-0.121-0.884-0.319-1.324c-0.216-0.477-0.482-0.873-0.801-1.188c-0.319-0.316-0.673-0.546-1.062-0.69    c-0.391-0.144-0.806-0.2-1.245-0.168c-0.44,0.031-0.888,0.149-1.343,0.354c-0.454,0.206-0.832,0.47-1.132,0.79    c-0.301,0.321-0.52,0.679-0.658,1.069c-0.139,0.392-0.196,0.808-0.174,1.248c0.022,0.44,0.131,0.876,0.326,1.308    c0.208,0.462,0.462,0.855,0.761,1.178c0.3,0.325,0.636,0.564,1.008,0.721c0.372,0.157,0.776,0.228,1.215,0.209    C55.969,54.515,56.431,54.397,56.917,54.178z"/>
	</g>
	<g id="XMLID_60_">
		<path id="XMLID_86_" style="fill:#F3714E;" d="M36.766,79.555c0.092-0.131,0.178-0.257,0.259-0.379    c0.081-0.123,0.159-0.246,0.234-0.369c-0.282,0.206-0.597,0.37-0.943,0.488c-0.347,0.117-0.714,0.189-1.102,0.213    c-0.44,0.027-0.877-0.021-1.31-0.148s-0.823-0.334-1.171-0.622c-0.349-0.287-0.638-0.654-0.869-1.097    c-0.23-0.443-0.364-0.971-0.402-1.582c-0.035-0.569,0.037-1.11,0.218-1.623s0.45-0.969,0.81-1.369    c0.358-0.399,0.799-0.725,1.319-0.975c0.521-0.251,1.105-0.396,1.752-0.437c0.652-0.041,1.245,0.027,1.777,0.201    c0.533,0.173,0.994,0.434,1.385,0.781c0.39,0.347,0.699,0.774,0.928,1.279c0.229,0.505,0.362,1.065,0.4,1.683    c0.024,0.394,0.014,0.769-0.031,1.126c-0.047,0.356-0.121,0.702-0.224,1.036c-0.104,0.333-0.234,0.661-0.391,0.983    c-0.157,0.322-0.335,0.644-0.533,0.962l-2.661,4.341c-0.091,0.146-0.233,0.275-0.427,0.386c-0.194,0.107-0.417,0.171-0.67,0.187    l-2.001,0.123L36.766,79.555z M33.628,75.757c0.044,0.711,0.262,1.242,0.652,1.593c0.39,0.351,0.923,0.504,1.599,0.462    c0.353-0.021,0.663-0.096,0.933-0.226c0.27-0.128,0.492-0.296,0.669-0.501c0.176-0.206,0.304-0.443,0.385-0.714    c0.08-0.271,0.111-0.559,0.092-0.864c-0.021-0.348-0.093-0.654-0.216-0.92c-0.123-0.268-0.286-0.489-0.492-0.665    c-0.206-0.177-0.445-0.307-0.719-0.389c-0.273-0.084-0.569-0.116-0.887-0.096c-0.329,0.021-0.622,0.093-0.88,0.218    c-0.258,0.125-0.475,0.29-0.65,0.496c-0.176,0.205-0.306,0.444-0.389,0.718C33.641,75.145,33.609,75.44,33.628,75.757z"/>
	</g>
	<g id="XMLID_61_">
		<path id="XMLID_84_" style="fill:#2887C2;" d="M42.802,92.168l0.382,1.022l-4.422,1.648l-0.382-1.021L40,93.213l-1.738-4.66    c-0.068-0.185-0.135-0.376-0.196-0.575l-0.791,1.391c-0.047,0.076-0.101,0.133-0.16,0.17c-0.06,0.036-0.12,0.061-0.181,0.07    c-0.062,0.011-0.119,0.01-0.174-0.001c-0.055-0.012-0.1-0.029-0.134-0.054l-0.652-0.432l1.665-2.981l1.122-0.418l2.604,6.981    L42.802,92.168z"/>
	</g>
	<g id="XMLID_36_">
		<path id="XMLID_82_" style="fill:#F3714E;" d="M60.116,81.414l0.484,1.298l-5.615,2.094L54.5,83.508l2.057-0.767l-2.206-5.916    c-0.088-0.234-0.17-0.479-0.249-0.731l-1.005,1.765c-0.059,0.098-0.127,0.17-0.202,0.217c-0.076,0.048-0.153,0.077-0.231,0.09    c-0.077,0.013-0.15,0.012-0.22-0.001c-0.069-0.016-0.126-0.038-0.17-0.069l-0.827-0.547l2.113-3.786l1.425-0.531l3.306,8.864    L60.116,81.414z"/>
	</g>
	<g id="XMLID_32_">
		<path id="XMLID_80_" style="fill:#F3714E;" d="M58.835,103.8c0.209-0.131,0.413-0.247,0.612-0.346    c0.2-0.098,0.396-0.183,0.591-0.254c0.537-0.201,1.04-0.298,1.51-0.291s0.896,0.102,1.28,0.28s0.718,0.432,1.001,0.759    c0.281,0.326,0.505,0.709,0.669,1.146c0.202,0.543,0.292,1.074,0.268,1.593c-0.024,0.52-0.146,1.001-0.367,1.445    c-0.221,0.445-0.531,0.842-0.93,1.189c-0.399,0.347-0.873,0.623-1.419,0.827c-0.321,0.12-0.637,0.2-0.95,0.24    c-0.312,0.041-0.614,0.054-0.907,0.038c-0.295-0.017-0.575-0.058-0.844-0.122c-0.268-0.063-0.517-0.144-0.746-0.24l0.26-0.943    c0.055-0.202,0.173-0.338,0.356-0.406c0.118-0.044,0.252-0.051,0.403-0.021c0.15,0.029,0.321,0.06,0.513,0.091    c0.191,0.03,0.408,0.044,0.651,0.039c0.242-0.005,0.515-0.062,0.816-0.176c0.32-0.119,0.584-0.277,0.79-0.473    c0.206-0.193,0.356-0.415,0.45-0.662c0.093-0.248,0.133-0.514,0.119-0.803c-0.014-0.287-0.076-0.582-0.188-0.884    c-0.207-0.556-0.532-0.931-0.971-1.123c-0.44-0.194-0.976-0.173-1.607,0.063c-0.486,0.181-0.95,0.456-1.392,0.824l-1.205,0.095    l-1.003-5.28l5.049-1.883l0.276,0.743c0.094,0.25,0.092,0.481-0.006,0.694c-0.098,0.214-0.333,0.391-0.705,0.529l-2.808,1.047    L58.835,103.8z"/>
	</g>
	<g id="XMLID_62_">
		<path id="XMLID_77_" style="fill:#DAE6E8;" d="M47.615,98.032l0.02,0.632c0.002,0.06-0.016,0.111-0.053,0.155    s-0.091,0.067-0.161,0.069l-0.585,0.019l0.049,1.563l-0.952,0.03l-0.049-1.563l-2.701,0.085c-0.073,0.002-0.14-0.02-0.197-0.063    c-0.058-0.043-0.094-0.1-0.111-0.166l-0.132-0.55l2.904-4.146l1.036-0.033l0.126,3.994L47.615,98.032z M45.857,98.088    l-0.066-2.095c-0.006-0.198,0-0.417,0.019-0.656l-1.9,2.812L45.857,98.088z"/>
	</g>
	<g id="XMLID_26_">
		<path id="XMLID_75_" style="fill:#2887C2;" d="M59.124,36.128c0.069-0.427,0.194-0.8,0.377-1.12    c0.183-0.319,0.408-0.585,0.677-0.796c0.269-0.211,0.576-0.368,0.921-0.47c0.345-0.104,0.714-0.152,1.109-0.146    c0.411,0.008,0.781,0.073,1.109,0.196c0.329,0.123,0.608,0.291,0.839,0.502c0.23,0.212,0.406,0.458,0.526,0.74    c0.121,0.281,0.178,0.585,0.172,0.909c-0.005,0.284-0.042,0.532-0.109,0.747s-0.162,0.401-0.284,0.56s-0.272,0.291-0.45,0.398    c-0.179,0.108-0.38,0.198-0.604,0.268c0.531,0.177,0.925,0.44,1.182,0.791c0.257,0.35,0.381,0.785,0.372,1.308    c-0.008,0.443-0.097,0.835-0.268,1.174c-0.17,0.338-0.397,0.62-0.68,0.848c-0.284,0.228-0.611,0.397-0.98,0.51    c-0.37,0.113-0.761,0.166-1.172,0.158c-0.448-0.008-0.837-0.066-1.168-0.175s-0.618-0.266-0.861-0.472    c-0.243-0.205-0.448-0.456-0.616-0.751c-0.167-0.294-0.309-0.634-0.426-1.019l0.677-0.266c0.178-0.071,0.343-0.088,0.497-0.05    s0.264,0.123,0.332,0.256c0.072,0.145,0.15,0.288,0.236,0.43c0.086,0.141,0.189,0.268,0.311,0.378    c0.122,0.111,0.265,0.202,0.43,0.273c0.165,0.07,0.363,0.108,0.593,0.112c0.259,0.004,0.486-0.033,0.68-0.115    c0.195-0.08,0.358-0.188,0.49-0.32c0.132-0.134,0.23-0.283,0.297-0.448c0.066-0.166,0.102-0.332,0.104-0.501    c0.004-0.214-0.016-0.408-0.058-0.583c-0.042-0.176-0.134-0.327-0.276-0.453c-0.142-0.125-0.347-0.226-0.614-0.301    c-0.268-0.074-0.628-0.115-1.08-0.123l0.019-1.084c0.375,0.002,0.686-0.027,0.934-0.088c0.248-0.062,0.445-0.15,0.594-0.265    c0.147-0.114,0.252-0.253,0.312-0.417c0.06-0.163,0.092-0.344,0.095-0.541c0.007-0.42-0.104-0.74-0.334-0.962    s-0.541-0.336-0.932-0.343c-0.181-0.003-0.348,0.02-0.5,0.067c-0.153,0.049-0.291,0.119-0.414,0.209s-0.227,0.196-0.311,0.318    s-0.148,0.256-0.192,0.403c-0.073,0.188-0.167,0.312-0.281,0.372c-0.114,0.06-0.273,0.07-0.478,0.034L59.124,36.128z"/>
	</g>
	<g id="XMLID_35_">
		<path id="XMLID_71_" style="fill:#DAE6E8;" d="M71.255,48.159c0.631,0.467,1.035,0.994,1.216,1.581    c0.179,0.588,0.153,1.225-0.075,1.911c-0.172,0.515-0.426,0.948-0.761,1.302s-0.729,0.618-1.182,0.795    c-0.451,0.177-0.953,0.263-1.502,0.258c-0.551-0.004-1.126-0.106-1.727-0.307c-0.601-0.201-1.122-0.464-1.564-0.791    c-0.442-0.326-0.791-0.695-1.047-1.109c-0.256-0.412-0.411-0.86-0.468-1.344c-0.056-0.484,0.002-0.983,0.173-1.498    c0.229-0.687,0.593-1.211,1.088-1.573c0.497-0.361,1.138-0.54,1.922-0.534c-0.484-0.424-0.794-0.9-0.932-1.428    c-0.137-0.529-0.103-1.099,0.102-1.71c0.146-0.44,0.373-0.82,0.68-1.142c0.307-0.32,0.668-0.568,1.084-0.742    c0.415-0.174,0.874-0.266,1.374-0.274c0.501-0.009,1.02,0.076,1.556,0.255c0.537,0.18,1.002,0.423,1.397,0.73    c0.395,0.308,0.706,0.655,0.934,1.044c0.229,0.39,0.368,0.804,0.421,1.244c0.053,0.441,0.006,0.882-0.142,1.321    c-0.204,0.611-0.519,1.087-0.945,1.428C72.43,47.916,71.896,48.111,71.255,48.159z M67.743,52.146    c0.327,0.109,0.63,0.158,0.907,0.146c0.278-0.012,0.529-0.072,0.754-0.183c0.224-0.11,0.418-0.266,0.58-0.468    c0.163-0.202,0.289-0.438,0.379-0.705c0.213-0.639,0.196-1.181-0.048-1.625c-0.245-0.445-0.679-0.772-1.301-0.979    c-0.622-0.208-1.165-0.206-1.628,0.003c-0.463,0.208-0.801,0.632-1.014,1.271c-0.09,0.268-0.13,0.531-0.121,0.791    c0.01,0.259,0.07,0.5,0.184,0.724c0.113,0.222,0.277,0.421,0.494,0.598C67.145,51.895,67.416,52.037,67.743,52.146z     M70.692,43.305c-0.296-0.098-0.565-0.137-0.81-0.118c-0.245,0.021-0.464,0.083-0.657,0.188s-0.356,0.246-0.489,0.422    c-0.134,0.176-0.237,0.374-0.311,0.594c-0.077,0.23-0.124,0.464-0.14,0.7c-0.016,0.235,0.015,0.461,0.093,0.675    c0.077,0.213,0.209,0.408,0.396,0.583c0.186,0.175,0.438,0.316,0.761,0.424s0.609,0.146,0.864,0.118    c0.253-0.028,0.476-0.104,0.666-0.229c0.19-0.124,0.351-0.285,0.479-0.483c0.129-0.199,0.231-0.413,0.309-0.645    c0.073-0.219,0.108-0.439,0.105-0.662c-0.004-0.221-0.051-0.432-0.138-0.631c-0.09-0.199-0.226-0.381-0.409-0.543    C71.227,43.534,70.987,43.403,70.692,43.305z"/>
	</g>
	<g id="XMLID_37_">
		<path id="XMLID_51_" style="fill:#2887C2;" d="M68.068,61.266l-0.58,0.756c-0.173,0.226-0.336,0.39-0.49,0.492    c-0.155,0.103-0.29,0.184-0.41,0.241l-9.98,4.993c-0.207,0.104-0.428,0.156-0.661,0.16c-0.235,0.003-0.475-0.09-0.719-0.277    l-1.264-0.97l9.934-4.771c0.212-0.092,0.413-0.172,0.604-0.238c0.19-0.067,0.386-0.121,0.588-0.16l-4.885-3.75    c-0.108-0.084-0.171-0.195-0.191-0.338c-0.019-0.141,0.013-0.266,0.097-0.373l0.904-1.18L68.068,61.266z"/>
	</g>
	<g id="XMLID_29_">
		<path id="XMLID_49_" style="fill:#2887C2;" d="M49.244,25.815c0.197-0.503,0.45-0.927,0.758-1.27s0.654-0.607,1.039-0.795    c0.386-0.187,0.802-0.298,1.252-0.332c0.449-0.035,0.915,0.005,1.396,0.118c0.501,0.118,0.936,0.295,1.307,0.533    c0.369,0.238,0.666,0.517,0.894,0.836c0.226,0.32,0.376,0.668,0.448,1.045s0.063,0.763-0.029,1.158    c-0.082,0.347-0.192,0.642-0.332,0.886s-0.305,0.448-0.496,0.609c-0.191,0.162-0.41,0.285-0.658,0.369    c-0.247,0.085-0.516,0.141-0.808,0.168c0.603,0.357,1.016,0.785,1.237,1.281c0.222,0.497,0.259,1.062,0.109,1.699    c-0.128,0.541-0.342,0.996-0.639,1.365c-0.298,0.369-0.651,0.654-1.058,0.857c-0.408,0.204-0.854,0.325-1.334,0.365    c-0.483,0.04-0.977,0-1.478-0.117c-0.546-0.128-1.007-0.303-1.384-0.523s-0.686-0.489-0.929-0.805    c-0.243-0.316-0.429-0.677-0.555-1.083c-0.127-0.405-0.211-0.858-0.252-1.36l0.899-0.146c0.235-0.04,0.443-0.016,0.621,0.07    c0.179,0.087,0.29,0.221,0.339,0.401c0.049,0.196,0.107,0.392,0.175,0.588c0.067,0.195,0.161,0.378,0.28,0.545    c0.119,0.169,0.271,0.318,0.454,0.448c0.183,0.13,0.415,0.229,0.696,0.295c0.315,0.074,0.604,0.087,0.862,0.04    c0.26-0.047,0.488-0.135,0.685-0.263c0.197-0.128,0.358-0.285,0.484-0.47c0.123-0.185,0.211-0.38,0.259-0.585    c0.062-0.26,0.09-0.503,0.085-0.729c-0.006-0.226-0.078-0.435-0.219-0.627c-0.14-0.191-0.364-0.368-0.672-0.53    c-0.309-0.162-0.737-0.309-1.289-0.438l0.311-1.323c0.457,0.103,0.846,0.148,1.165,0.139s0.585-0.065,0.796-0.166    c0.211-0.101,0.377-0.244,0.494-0.428c0.116-0.184,0.203-0.396,0.26-0.637c0.12-0.511,0.068-0.933-0.154-1.265    c-0.224-0.333-0.572-0.556-1.049-0.667c-0.221-0.052-0.432-0.068-0.632-0.049c-0.2,0.02-0.387,0.068-0.561,0.146    c-0.175,0.078-0.33,0.181-0.466,0.307c-0.135,0.127-0.249,0.275-0.342,0.443c-0.139,0.211-0.286,0.337-0.441,0.38    c-0.156,0.043-0.354,0.015-0.595-0.084L49.244,25.815z"/>
	</g>
	<g id="XMLID_34_">
		<path id="XMLID_47_" style="fill:#0A486A;" d="M63.948,30.182l-0.012,1.428l-6.177-0.053l0.012-1.428l2.262,0.019l0.056-6.509    c0.003-0.257,0.013-0.522,0.03-0.795l-1.616,1.33c-0.094,0.071-0.186,0.115-0.276,0.132c-0.09,0.017-0.175,0.018-0.255,0.001    c-0.08-0.016-0.149-0.043-0.211-0.083c-0.062-0.039-0.107-0.082-0.139-0.129l-0.595-0.831l3.43-2.866l1.567,0.014l-0.084,9.751    L63.948,30.182z"/>
	</g>
	<g id="XMLID_64_">
		<path id="XMLID_44_" style="fill:#0A486A;" d="M48.523,39.068c-0.017,0.954-0.134,1.781-0.35,2.481    c-0.218,0.7-0.511,1.276-0.88,1.729c-0.368,0.453-0.801,0.788-1.297,1.003c-0.494,0.216-1.027,0.318-1.598,0.308    c-0.57-0.01-1.098-0.131-1.58-0.364c-0.483-0.233-0.9-0.583-1.251-1.048c-0.351-0.465-0.62-1.052-0.809-1.759    c-0.19-0.708-0.276-1.539-0.26-2.492c0.018-0.958,0.133-1.787,0.347-2.485s0.505-1.272,0.871-1.726    c0.366-0.453,0.795-0.787,1.286-1.003c0.49-0.215,1.021-0.319,1.592-0.309c0.57,0.01,1.1,0.132,1.586,0.365    c0.488,0.233,0.909,0.583,1.262,1.048c0.354,0.466,0.625,1.05,0.817,1.756C48.453,37.277,48.541,38.109,48.523,39.068z     M46.593,39.034c0.015-0.792-0.032-1.449-0.139-1.971c-0.107-0.522-0.255-0.938-0.444-1.25c-0.188-0.311-0.407-0.53-0.657-0.658    c-0.251-0.128-0.512-0.195-0.784-0.2c-0.268-0.004-0.527,0.052-0.779,0.172c-0.252,0.119-0.477,0.331-0.674,0.635    s-0.357,0.715-0.479,1.233c-0.123,0.518-0.191,1.173-0.206,1.965c-0.014,0.792,0.031,1.449,0.137,1.971    c0.104,0.521,0.249,0.938,0.437,1.249c0.186,0.311,0.402,0.531,0.65,0.659s0.506,0.195,0.773,0.199    c0.272,0.005,0.535-0.052,0.79-0.171c0.254-0.119,0.48-0.331,0.681-0.636c0.199-0.304,0.362-0.715,0.487-1.232    C46.509,40.481,46.579,39.826,46.593,39.034z"/>
	</g>
	<g id="XMLID_65_">
		<path id="XMLID_41_" style="fill:#F3714E;" d="M119.901,79.969c-0.31,0.688-0.652,1.254-1.028,1.695s-0.769,0.77-1.178,0.986    c-0.41,0.213-0.828,0.322-1.257,0.324c-0.428,0.002-0.848-0.088-1.26-0.273s-0.756-0.438-1.035-0.758s-0.473-0.705-0.583-1.152    c-0.109-0.447-0.123-0.959-0.041-1.531c0.083-0.574,0.279-1.205,0.589-1.895c0.311-0.691,0.653-1.258,1.026-1.7    c0.374-0.44,0.764-0.769,1.172-0.984s0.823-0.325,1.248-0.329s0.842,0.086,1.254,0.271s0.759,0.438,1.041,0.76    c0.283,0.322,0.479,0.707,0.592,1.156c0.11,0.447,0.127,0.959,0.047,1.531C120.408,78.645,120.212,79.275,119.901,79.969z     M118.508,79.342c0.257-0.572,0.428-1.064,0.513-1.477c0.085-0.414,0.107-0.764,0.066-1.049c-0.04-0.285-0.132-0.512-0.274-0.684    c-0.141-0.171-0.311-0.301-0.508-0.389c-0.192-0.087-0.399-0.126-0.62-0.118c-0.221,0.009-0.449,0.093-0.688,0.253    c-0.239,0.159-0.483,0.409-0.734,0.747c-0.25,0.338-0.504,0.795-0.761,1.367c-0.257,0.57-0.429,1.062-0.517,1.475    c-0.086,0.412-0.11,0.762-0.071,1.047c0.039,0.283,0.128,0.512,0.268,0.682c0.141,0.17,0.308,0.299,0.5,0.385    c0.197,0.088,0.407,0.129,0.629,0.121c0.223-0.006,0.454-0.09,0.693-0.25c0.241-0.158,0.487-0.406,0.739-0.744    C117.996,80.369,118.251,79.914,118.508,79.342z"/>
	</g>
	<g id="XMLID_67_">
		<path id="XMLID_14_" style="fill:#2887C2;" d="M115.863,65.603c0.874,0.794,1.402,1.645,1.583,2.552    c0.18,0.907,0.047,1.857-0.399,2.851c-0.335,0.746-0.781,1.357-1.337,1.835c-0.555,0.478-1.186,0.815-1.889,1.013    c-0.705,0.197-1.469,0.25-2.291,0.161c-0.822-0.09-1.67-0.331-2.539-0.721s-1.61-0.864-2.225-1.419    c-0.614-0.556-1.081-1.162-1.4-1.82c-0.321-0.657-0.487-1.352-0.499-2.085c-0.011-0.733,0.151-1.472,0.486-2.217    c0.446-0.994,1.068-1.725,1.866-2.192c0.799-0.468,1.784-0.638,2.96-0.511c-0.662-0.708-1.056-1.468-1.18-2.28    c-0.126-0.812,0.01-1.661,0.407-2.546c0.286-0.637,0.683-1.172,1.191-1.606c0.508-0.435,1.087-0.751,1.735-0.949    s1.349-0.267,2.101-0.204s1.515,0.268,2.292,0.617c0.775,0.349,1.437,0.783,1.981,1.304c0.546,0.52,0.96,1.089,1.242,1.706    s0.431,1.26,0.443,1.928c0.013,0.668-0.125,1.32-0.411,1.957c-0.397,0.885-0.941,1.55-1.631,1.996    C117.661,65.417,116.832,65.627,115.863,65.603z M110.002,71.045c0.474,0.213,0.919,0.332,1.337,0.356    c0.419,0.024,0.804-0.028,1.156-0.159c0.354-0.131,0.667-0.335,0.94-0.613c0.274-0.278,0.5-0.611,0.674-0.999    c0.415-0.924,0.473-1.738,0.174-2.442c-0.301-0.705-0.9-1.259-1.801-1.663c-0.9-0.405-1.714-0.485-2.438-0.242    c-0.727,0.243-1.296,0.827-1.711,1.751c-0.175,0.388-0.275,0.777-0.301,1.167c-0.026,0.389,0.029,0.759,0.166,1.11    c0.136,0.35,0.353,0.674,0.648,0.97C109.143,70.578,109.528,70.832,110.002,71.045z M115.753,58.246    c-0.427-0.192-0.826-0.291-1.195-0.299c-0.37-0.008-0.708,0.053-1.013,0.182s-0.571,0.315-0.797,0.559    c-0.226,0.244-0.412,0.524-0.555,0.843c-0.15,0.334-0.255,0.677-0.314,1.028s-0.047,0.693,0.038,1.024    c0.083,0.332,0.251,0.643,0.504,0.934c0.251,0.291,0.61,0.54,1.076,0.75c0.466,0.209,0.891,0.312,1.276,0.308    c0.384-0.005,0.729-0.086,1.033-0.243c0.303-0.157,0.566-0.375,0.789-0.653s0.409-0.583,0.56-0.917    c0.143-0.318,0.229-0.644,0.257-0.977c0.028-0.332-0.009-0.655-0.111-0.967c-0.103-0.312-0.279-0.604-0.53-0.875    C116.519,58.67,116.18,58.438,115.753,58.246z"/>
	</g>
	<g id="XMLID_63_">
		<path id="XMLID_12_" style="fill:#F3714E;" d="M75.362,35.1c0.221-0.14,0.438-0.263,0.649-0.367    c0.213-0.105,0.421-0.195,0.625-0.271c0.571-0.214,1.106-0.316,1.605-0.309c0.499,0.007,0.952,0.105,1.359,0.296    c0.408,0.189,0.762,0.458,1.062,0.805s0.538,0.753,0.712,1.218c0.216,0.576,0.311,1.14,0.284,1.69    c-0.023,0.552-0.153,1.063-0.388,1.535c-0.234,0.473-0.562,0.894-0.987,1.264c-0.424,0.369-0.926,0.662-1.506,0.879    c-0.341,0.128-0.676,0.213-1.008,0.257s-0.652,0.058-0.965,0.04c-0.312-0.018-0.609-0.06-0.895-0.128    c-0.285-0.067-0.549-0.152-0.793-0.256l0.276-1.001c0.057-0.215,0.182-0.359,0.378-0.433c0.124-0.046,0.268-0.054,0.427-0.022    c0.16,0.031,0.342,0.063,0.545,0.096c0.204,0.032,0.435,0.047,0.691,0.041c0.259-0.005,0.547-0.067,0.866-0.187    c0.341-0.127,0.621-0.295,0.84-0.502c0.22-0.208,0.378-0.442,0.477-0.704c0.1-0.263,0.141-0.546,0.127-0.853    c-0.015-0.305-0.082-0.618-0.201-0.938c-0.221-0.59-0.564-0.988-1.032-1.192c-0.468-0.205-1.035-0.183-1.707,0.068    c-0.515,0.192-1.007,0.485-1.477,0.878l-1.28,0.102l-1.067-5.606l5.359-2.003l0.294,0.788c0.1,0.266,0.098,0.512-0.006,0.738    s-0.353,0.414-0.748,0.562l-2.98,1.114L75.362,35.1z"/>
	</g>
	<g id="XMLID_33_">
		<path id="XMLID_10_" style="fill:#0A486A;" d="M93.489,41.673l-0.502,0.908c-0.15,0.271-0.301,0.476-0.449,0.611    c-0.149,0.136-0.283,0.244-0.402,0.326l-9.948,7c-0.205,0.146-0.434,0.238-0.686,0.28c-0.253,0.042-0.526-0.019-0.82-0.182    l-1.52-0.841l9.933-6.753c0.214-0.133,0.418-0.251,0.613-0.354c0.192-0.104,0.396-0.192,0.607-0.268l-5.873-3.25    c-0.131-0.072-0.217-0.183-0.259-0.331c-0.044-0.149-0.029-0.29,0.043-0.42l0.784-1.417L93.489,41.673z"/>
	</g>
	<g id="XMLID_30_">
		<path id="XMLID_8_" style="fill:#2887C2;" d="M79.39,21.308c0.229,0.05,0.444,0.109,0.646,0.175c0.2,0.066,0.39,0.14,0.568,0.22    c0.496,0.223,0.901,0.493,1.215,0.812c0.313,0.318,0.54,0.667,0.68,1.043c0.14,0.376,0.196,0.77,0.17,1.18    c-0.026,0.41-0.131,0.817-0.312,1.223c-0.225,0.501-0.519,0.92-0.881,1.255s-0.767,0.58-1.213,0.733    c-0.445,0.154-0.919,0.215-1.421,0.184c-0.502-0.032-1.006-0.16-1.512-0.388c-0.297-0.133-0.564-0.289-0.804-0.47    c-0.238-0.18-0.451-0.374-0.637-0.581c-0.188-0.207-0.351-0.422-0.489-0.644c-0.14-0.222-0.254-0.442-0.344-0.661l0.805-0.464    c0.17-0.101,0.34-0.114,0.511-0.038c0.108,0.049,0.204,0.133,0.286,0.254c0.083,0.121,0.178,0.255,0.287,0.403    c0.108,0.148,0.246,0.302,0.414,0.46c0.167,0.159,0.391,0.301,0.67,0.426c0.296,0.133,0.579,0.202,0.849,0.208    c0.27,0.005,0.519-0.043,0.747-0.148c0.228-0.105,0.433-0.259,0.614-0.463c0.184-0.203,0.338-0.444,0.463-0.724    c0.23-0.515,0.262-0.983,0.093-1.407c-0.168-0.425-0.545-0.768-1.129-1.029c-0.45-0.202-0.946-0.325-1.491-0.37l-0.879-0.74    l2.844-4.24l4.67,2.094L84.501,20.3c-0.104,0.231-0.26,0.387-0.469,0.466c-0.208,0.08-0.485,0.042-0.829-0.112l-2.597-1.164    L79.39,21.308z"/>
	</g>
	<g id="XMLID_28_">
		<path id="XMLID_6_" style="fill:#F3714E;" d="M71.013,29.09c0.177,0.089,0.291,0.209,0.345,0.36    c0.053,0.151,0.039,0.309-0.043,0.472l-0.493,0.977l-6.552-3.306l0.273-0.542c0.056-0.109,0.138-0.213,0.244-0.312    c0.107-0.098,0.236-0.169,0.387-0.215l4.365-1.443c0.366-0.124,0.703-0.25,1.007-0.378c0.306-0.128,0.577-0.27,0.816-0.426    c0.237-0.155,0.448-0.329,0.632-0.521c0.183-0.192,0.337-0.414,0.463-0.665c0.115-0.229,0.186-0.447,0.207-0.655    c0.021-0.207,0.001-0.4-0.061-0.581c-0.06-0.18-0.16-0.342-0.299-0.487c-0.141-0.145-0.315-0.271-0.527-0.377    c-0.193-0.098-0.387-0.161-0.58-0.189c-0.192-0.028-0.378-0.025-0.556,0.01c-0.177,0.034-0.344,0.096-0.499,0.183    c-0.154,0.087-0.294,0.2-0.418,0.336c-0.176,0.164-0.341,0.25-0.493,0.256s-0.332-0.065-0.539-0.214l-0.781-0.585    c0.297-0.425,0.627-0.762,0.991-1.012c0.363-0.25,0.746-0.418,1.146-0.506c0.4-0.089,0.814-0.098,1.24-0.028    c0.426,0.068,0.852,0.209,1.273,0.422c0.441,0.222,0.811,0.49,1.111,0.805c0.3,0.314,0.52,0.655,0.659,1.024    s0.197,0.757,0.174,1.166c-0.023,0.408-0.139,0.816-0.345,1.226c-0.178,0.352-0.395,0.652-0.648,0.898    c-0.255,0.247-0.538,0.464-0.85,0.649c-0.312,0.185-0.648,0.346-1.011,0.483c-0.363,0.138-0.738,0.274-1.126,0.409l-3.264,1.113    c0.238,0.042,0.469,0.099,0.69,0.169c0.221,0.07,0.423,0.152,0.609,0.246L71.013,29.09z"/>
	</g>
	<g id="XMLID_27_">
		<path id="XMLID_3_" style="fill:#2887C2;" d="M76.039,61.244c0.106-0.126,0.206-0.25,0.3-0.37    c0.094-0.121,0.186-0.242,0.272-0.362c-0.31,0.19-0.647,0.333-1.016,0.427c-0.368,0.095-0.755,0.138-1.157,0.131    c-0.459-0.008-0.907-0.095-1.345-0.262c-0.437-0.167-0.823-0.414-1.161-0.741c-0.336-0.327-0.606-0.729-0.809-1.207    c-0.203-0.477-0.299-1.034-0.287-1.669c0.011-0.593,0.131-1.147,0.36-1.664c0.229-0.516,0.546-0.965,0.95-1.35    c0.404-0.384,0.886-0.685,1.446-0.901s1.177-0.319,1.849-0.307c0.678,0.012,1.287,0.13,1.824,0.353    c0.537,0.224,0.993,0.532,1.368,0.923c0.377,0.392,0.661,0.858,0.856,1.4c0.196,0.542,0.288,1.133,0.277,1.775    c-0.008,0.41-0.05,0.797-0.126,1.163c-0.077,0.366-0.183,0.717-0.318,1.054c-0.134,0.337-0.296,0.666-0.485,0.987    c-0.188,0.321-0.398,0.638-0.631,0.952l-3.111,4.274c-0.107,0.145-0.265,0.266-0.474,0.363c-0.21,0.098-0.445,0.144-0.708,0.139    l-2.082-0.037L76.039,61.244z M73.105,57.056c-0.013,0.74,0.169,1.307,0.543,1.701c0.375,0.396,0.915,0.599,1.617,0.611    c0.367,0.006,0.695-0.046,0.984-0.157c0.289-0.111,0.533-0.266,0.733-0.464c0.198-0.198,0.352-0.434,0.457-0.707    c0.106-0.273,0.161-0.569,0.167-0.887c0.006-0.36-0.043-0.684-0.148-0.97c-0.104-0.286-0.256-0.529-0.455-0.729    c-0.197-0.199-0.436-0.353-0.712-0.461c-0.276-0.109-0.579-0.166-0.909-0.172c-0.343-0.006-0.651,0.045-0.929,0.153    c-0.277,0.108-0.516,0.262-0.715,0.46c-0.198,0.198-0.354,0.435-0.462,0.711C73.167,56.422,73.111,56.726,73.105,57.056z"/>
	</g>
</g>
</svg>