<?xml version="1.0" encoding="UTF-8" standalone="no"?>
<!-- Created with Inkscape (http://www.inkscape.org/) -->

<svg
   width="512"
   height="512"
   version="1.1"
   viewBox="0 0 512 512"
   id="svg8"
   sodipodi:docname="chemistry-channel.svg"
   inkscape:version="1.2.2 (b0a8486541, 2022-12-01)"
   xmlns:inkscape="http://www.inkscape.org/namespaces/inkscape"
   xmlns:sodipodi="http://sodipodi.sourceforge.net/DTD/sodipodi-0.dtd"
   xmlns="http://www.w3.org/2000/svg"
   xmlns:svg="http://www.w3.org/2000/svg">
  <defs
     id="defs12" />
  <sodipodi:namedview
     id="namedview10"
     pagecolor="#505050"
     bordercolor="#eeeeee"
     borderopacity="1"
     inkscape:showpageshadow="0"
     inkscape:pageopacity="0"
     inkscape:pagecheckerboard="0"
     inkscape:deskcolor="#505050"
     showgrid="false"
     inkscape:zoom="2.0058594"
     inkscape:cx="244.03505"
     inkscape:cy="238.55112"
     inkscape:window-width="2560"
     inkscape:window-height="1368"
     inkscape:window-x="0"
     inkscape:window-y="0"
     inkscape:window-maximized="1"
     inkscape:current-layer="svg8">
    <inkscape:grid
       type="xygrid"
       id="grid172" />
  </sodipodi:namedview>
  <path
     d="M 31.795457,485.77517 C 19.806946,483.38138 12.368697,477.64789 6.937085,466.61308 -3.0643438,446.29673 4.8400183,423.05431 24.550857,414.81867 c 3.144424,-1.3138 10.57885,-2.26233 18.726856,-2.38922 l 13.512861,-0.21051 33.217525,-32.11768 c 18.269561,-17.66523 33.596891,-33.62922 34.060061,-35.47751 0.55117,-2.19601 -0.66817,-6.09371 -3.52217,-11.2586 -3.93638,-7.12359 -6.19092,-14.59051 -8.09698,-26.81693 -0.9858,-6.32311 3.15942,-24.27021 7.42222,-32.13678 2.06927,-3.81816 8.2993,-11.52417 13.84443,-17.12415 9.45341,-9.54751 10.08201,-10.59413 10.08201,-16.78447 0,-4.58966 -1.33922,-9.00509 -4.39441,-14.48889 -13.53917,-24.3011 -15.01412,-28.38731 -15.01412,-41.58698 0,-19.05916 7.2693,-32.94844 21.6147,-41.30171 9.14404,-5.32427 17.47261,-6.87068 36.123,-6.70761 24.2614,0.21208 26.9522,-1.14335 39.75928,-20.03257 12.1307,-17.8902 23.51738,-24.27168 43.31026,-24.27168 10.11553,0 13.71563,0.676255 20.77659,3.902553 11.42226,5.219427 16.85063,10.736777 26.31111,26.741937 12.25215,20.72806 21.87348,27.11836 33.71745,22.39107 2.77433,-1.10741 18.01372,-12.86148 33.8645,-26.11997 l 28.81959,-24.107008 -1.03974,-7.506767 c -2.04207,-14.743575 -1.08298,-24.083477 3.4635,-33.727749 4.98932,-10.584291 9.2305,-15.146461 19.05181,-20.49132 23.55414,-12.819868 53.80295,-3.149129 64.71617,20.691292 5.12621,11.197002 5.10018,29.198957 -0.0582,40.272439 -4.64025,9.961733 -11.53681,16.888883 -21.28092,21.373563 -10.4146,4.79404 -30.12235,5.05548 -40.07394,0.5316 -3.63921,-1.65434 -7.44721,-3.02238 -8.46207,-3.04017 -2.20691,-0.0387 -41.38994,34.64821 -42.54861,37.66691 -0.4839,1.26107 2.52201,5.59071 7.5175,10.82794 4.5782,4.79964 10.1095,12.55196 12.29186,17.22705 3.44277,7.37547 3.96534,10.34962 3.94739,22.46899 -0.0243,16.3316 -2.25939,22.53664 -12.76281,35.43194 -9.06464,11.12877 -9.97716,13.16011 -9.97716,22.20726 0,5.67834 1.02798,9.65633 3.72978,14.43288 12.38346,21.89407 14.12498,26.95221 14.12498,41.03116 0,11.06849 -0.62001,14.71712 -3.61215,21.25152 -4.7145,10.29785 -12.23906,18.47688 -21.76908,23.66441 -7.05626,3.84051 -9.72677,4.32441 -32.68231,5.92243 l -24.99805,1.7402 -13.34613,14.12087 c -17.8711,18.90919 -24.91719,22.35723 -45.69523,22.36459 -13.97265,0.004 -15.16852,-0.24683 -24.04525,-5.0568 -6.32899,-3.42924 -11.43653,-7.69646 -15.83607,-13.23055 -3.57157,-4.49277 -8.57486,-10.7356 -11.1182,-13.87267 -7.0655,-8.71499 -14.41479,-11.24627 -35.5525,-12.24495 -9.93893,-0.46963 -20.55453,-0.38784 -23.59088,0.18173 -4.66804,0.87573 -10.77854,6.17768 -39.58724,34.34825 -36.934672,36.11714 -34.980527,33.21606 -32.189731,47.79201 5.27678,27.56094 -17.707877,50.02404 -45.505553,44.47334 z"
     id="path2"
     style="stroke-width:1.47039" />
  <path
     d="M 31.295525,485.06938 C 20.144694,482.64706 12.973026,477.04635 7.7869689,466.71159 2.4266712,456.02952 1.9984944,442.29433 6.7245257,432.63536 10.121709,425.6919 16.83491,419.00987 23.461947,415.97587 c 4.731854,-2.16632 6.592041,-2.43643 19.473812,-2.828 l 14.242174,-0.43286 26.111142,-25.36271 c 14.36069,-13.94943 29.610665,-29.23278 33.886555,-33.96302 9.01583,-9.9704 8.92025,-9.27726 3.04737,-22.11315 -4.90977,-10.73059 -6.7923,-18.32986 -6.84289,-27.61977 -0.0889,-16.35659 5.2387,-28.92839 18.29603,-43.17498 11.36095,-12.39521 12.37037,-14.01574 12.37465,-19.86494 0.004,-6.07534 -1.28363,-9.56016 -8.23358,-22.27637 -7.77542,-14.22672 -10.22965,-21.03683 -10.81001,-29.99885 -1.30877,-20.209 7.00523,-36.99201 22.38665,-45.19088 8.70484,-4.63966 14.5392,-5.73995 33.40574,-6.30032 9.34695,-0.2776 18.95918,-0.93225 21.36178,-1.45483 5.76921,-1.25522 11.58137,-6.53088 19.49587,-17.69612 11.73178,-16.55068 20.7604,-22.691016 36.23623,-24.64516 11.423,-1.441845 20.63984,-0.07356 29.47539,4.37558 9.3821,4.72465 13.78768,9.25903 23.64824,24.33932 12.94868,19.80318 18.57688,24.88338 27.62416,24.93189 6.02007,0.0324 8.14934,-0.99143 18.73717,-9.0092 13.68048,-10.36036 52.23845,-42.608894 51.80321,-43.324979 -0.20561,-0.338421 -0.85296,-5.169144 -1.43856,-10.734999 -1.43868,-13.674312 -0.36596,-20.375162 5.02197,-31.37072 4.6057,-9.399599 8.74366,-13.723126 17.70494,-18.500415 28.49758,-15.189103 63.71924,2.177203 67.17466,33.121949 3.05486,27.352144 -11.62357,47.819934 -36.83468,51.360634 -9.89072,1.38945 -20.53102,0.15419 -29.15926,-3.38527 -4.46513,-1.83167 -6.36795,-2.20323 -7.80821,-1.52509 -4.86491,2.29057 -40.51799,34.12034 -41.42669,36.98466 -0.6088,1.91812 1.41144,4.88389 11.52858,16.92417 9.58163,11.40269 12.43874,20.51189 11.66884,37.20373 -0.67547,14.64271 -2.85873,19.84877 -14.22512,33.92332 -6.89567,8.53809 -8.02199,11.39961 -8.02449,20.38544 l -0.002,7.91907 7.00288,13.66843 c 9.41533,18.3769 10.29476,21.32356 10.2586,34.37472 -0.0368,13.24055 -1.54126,18.71509 -7.65675,27.85796 -5.21738,7.8007 -11.6293,13.39964 -19.71349,17.21383 -6.1327,2.89372 -11.66929,3.68743 -38.49475,5.51777 l -16.44775,1.12226 -14.32628,14.37392 c -20.06637,20.13255 -25.58475,22.62338 -48.57719,21.92935 -9.97629,-0.30112 -11.26229,-0.55264 -16.8227,-3.29057 -9.30316,-4.58085 -13.83194,-8.56574 -23.84234,-20.98096 -10.22361,-12.67855 -13.41184,-15.25085 -21.53824,-17.37556 -7.01831,-1.83505 -31.00312,-3.42792 -39.81809,-2.64435 -6.10901,0.54291 -7.2543,0.98024 -12.09364,4.6179 -5.52396,4.15252 -48.324288,45.58201 -58.481723,56.60698 -7.258421,7.87936 -7.905832,10.10332 -6.13828,21.08388 1.585813,9.8519 0.851296,16.21103 -2.791825,24.16876 -4.687595,10.23905 -15.475829,18.44896 -27.091889,20.61777 -6.18298,1.15393 -8.313866,1.08934 -15.490533,-0.46956 z"
     fill="#2b0000"
     stroke-width="0.918611"
     id="path4" />
  <path
     d="m 41.352976,484.3636 c -2.861522,-0.9437 -6.656298,-2.61421 -8.432967,-3.71215 -10.641342,-6.57674 -17.824038,-24.24227 -15.417014,-37.91246 1.399486,-7.94495 4.273389,-13.30995 10.321091,-19.2665 7.379876,-7.2693 11.550189,-8.63822 28.784307,-9.44958 l 13.728567,-0.64624 11.533279,-10.86616 c 22.151381,-20.86922 55.041011,-54.7837 55.708571,-57.44217 0.47098,-1.87651 -0.15176,-4.43174 -2.32734,-9.54884 -5.18678,-12.20025 -7.56205,-20.48691 -8.06654,-28.14322 -1.12499,-17.07413 4.02769,-30.19294 18.20929,-46.36132 11.22007,-12.79236 11.84573,-13.8978 11.84999,-20.93536 0.003,-5.39721 -0.45503,-6.66763 -6.95846,-19.2915 -9.56046,-18.55628 -11.50696,-24.63781 -11.47813,-35.85686 0.0462,-18.01813 6.19988,-30.76051 18.78272,-38.89322 8.66558,-5.60086 15.03325,-7.11991 34.05123,-8.12359 21.57059,-1.13831 25.19656,-1.60538 28.52258,-3.6745 3.76154,-2.34013 9.21727,-8.19522 15.8302,-16.98886 13.63607,-18.13283 23.43944,-23.424751 43.38819,-23.424751 12.58078,0 23.07185,3.899909 31.36924,11.659881 2.44393,2.28601 8.26946,9.79543 12.94545,16.68742 10.93629,16.11987 18.02842,23.43799 23.93054,24.69664 6.0361,1.28739 10.99278,0.11777 17.0168,-4.01519 6.64911,-4.56173 26.17437,-20.28547 44.14986,-35.55398 12.68415,-10.774115 14.03323,-12.198767 13.56727,-14.326716 -1.27393,-5.816706 -1.67404,-22.811588 -0.65043,-27.624167 1.6861,-7.926565 7.8357,-19.463519 12.90044,-24.201108 8.26593,-7.731885 18.76949,-11.625471 31.36043,-11.625471 30.41056,0 50.13874,25.398003 43.61905,56.155567 -3.49836,16.505095 -15.7111,28.606385 -32.35442,32.061805 -8.63602,1.79284 -22.45134,0.78033 -31.40305,-2.30145 -9.17508,-3.15855 -7.58294,-3.81154 -23.12186,9.48238 -15.67726,13.412 -27.54182,24.8966 -27.54182,26.65959 0,0.83138 2.27145,4.40147 5.04754,7.93348 16.15074,20.54866 17.91815,24.65986 17.91815,41.69284 0,16.8124 -2.135,22.69395 -13.52375,37.25815 -6.94933,8.88687 -7.76276,10.80558 -8.3118,19.60467 l -0.48267,7.73644 7.48397,15.28615 c 9.32505,19.0474 10.62474,23.89674 10.00599,37.33314 -0.54998,11.94264 -2.19645,16.94769 -8.46619,25.73325 -7.48648,10.49137 -17.45056,16.93887 -28.96222,18.74304 -3.28411,0.51432 -14.62609,1.58037 -25.20391,2.36909 l -19.23415,1.43398 -13.37729,13.10439 c -13.47963,13.20452 -19.365,17.94462 -25.42153,20.47516 -5.03622,2.10427 -16.28747,3.0315 -27.10365,2.23381 -8.55809,-0.63113 -10.46696,-1.09938 -15.58758,-3.8239 -6.57086,-3.49598 -14.59904,-11.04541 -24.98188,-23.49091 -4.05562,-4.86168 -8.79498,-9.47047 -11.17069,-10.86278 -6.11577,-3.58406 -16.733,-5.16489 -35.88039,-5.34221 -14.2804,-0.13218 -16.94181,0.0688 -19.51351,1.47421 -6.43515,3.51643 -64.829382,60.26089 -67.806918,65.891 -1.32726,2.50967 -1.61728,4.62614 -1.321805,9.64545 0.208207,3.53673 0.387344,10.15067 0.398092,14.69785 0.01765,7.46912 -0.267477,8.85791 -2.952684,14.38068 -3.543193,7.28768 -10.593407,14.15483 -18.350436,17.87404 -7.022865,3.36747 -19.147387,3.99607 -27.018371,1.40062 z"
     fill="#808000"
     stroke-width="0.918611"
     id="path6" />
</svg>
